<?xml version="1.0" encoding="UTF-8" standalone="no"?>
<!-- Created with Inkscape (http://www.inkscape.org/) -->

<svg
   xmlns:dc="http://purl.org/dc/elements/1.1/"
   xmlns:cc="http://creativecommons.org/ns#"
   xmlns:rdf="http://www.w3.org/1999/02/22-rdf-syntax-ns#"
   xmlns:svg="http://www.w3.org/2000/svg"
   xmlns="http://www.w3.org/2000/svg"
   xmlns:sodipodi="http://sodipodi.sourceforge.net/DTD/sodipodi-0.dtd"
   xmlns:inkscape="http://www.inkscape.org/namespaces/inkscape"
   version="1.1"
   id="svg2"
   xml:space="preserve"
   width="301.42322"
   height="344.06635"
   viewBox="0 0 301.42322 344.06634"
   sodipodi:docname="background_haps.ink.svg"
   inkscape:version="0.92.3 (2405546, 2018-03-11)"><metadata
     id="metadata8"><rdf:RDF><cc:Work
         rdf:about=""><dc:format>image/svg+xml</dc:format><dc:type
           rdf:resource="http://purl.org/dc/dcmitype/StillImage" /><dc:title></dc:title></cc:Work></rdf:RDF></metadata><defs
     id="defs6"><clipPath
       clipPathUnits="userSpaceOnUse"
       id="clipPath22"><path
         d="M 0,0 H 720 V 540 H 0 Z"
         id="path20"
         inkscape:connector-curvature="0" /></clipPath><clipPath
       clipPathUnits="userSpaceOnUse"
       id="clipPath32"><path
         d="M 0,2.324581e-5 H 719.9999 V 540.00002 H 0 Z"
         id="path30"
         inkscape:connector-curvature="0" /></clipPath></defs><sodipodi:namedview
     pagecolor="#ffffff"
     bordercolor="#666666"
     borderopacity="1"
     objecttolerance="10"
     gridtolerance="10"
     guidetolerance="10"
     inkscape:pageopacity="0"
     inkscape:pageshadow="2"
     inkscape:window-width="1920"
     inkscape:window-height="1016"
     id="namedview4"
     showgrid="false"
     fit-margin-top="0"
     fit-margin-left="0"
     fit-margin-right="0"
     fit-margin-bottom="0"
     inkscape:zoom="1.189304"
     inkscape:cx="298.04455"
     inkscape:cy="217.31579"
     inkscape:window-x="0"
     inkscape:window-y="27"
     inkscape:window-maximized="1"
     inkscape:current-layer="g10" /><g
     id="g10"
     inkscape:groupmode="layer"
     inkscape:label="haps"
     transform="matrix(1.3333333,0,0,-1.3333333,-68.58272,424.07814)"><g
       id="g24"
       transform="scale(0.82756)" /><g
       id="g36"
       transform="matrix(6.516219e-5,0,0,-6.516219e-5,86.588761,132.26205)"><path
         d="M -0.03026092,0.00315577 2919840,0.9720891"
         style="fill:none;stroke:#000000;stroke-width:12700;stroke-linecap:butt;stroke-linejoin:round;stroke-miterlimit:10;stroke-dasharray:none;stroke-opacity:1"
         id="path38"
         inkscape:connector-curvature="0" /></g><path
       d="m 92.681589,132.08487 c 0,3.11477 2.525134,5.6399 5.639987,5.6399 3.114774,0 5.639904,-2.52513 5.639904,-5.6399 0,-3.11486 -2.52513,-5.63999 -5.639904,-5.63999 -3.114853,0 -5.639987,2.52513 -5.639987,5.63999 z"
       style="fill:#ffca00;fill-opacity:1;fill-rule:evenodd;stroke:none;stroke-width:0.82756001"
       id="path40"
       inkscape:connector-curvature="0" /><g
       id="g42"
       transform="matrix(6.516219e-5,0,0,-6.516219e-5,92.681589,137.72477)"><path
         d="M 0.02583636,86552.19 C 0.02583636,38750.83 38750.67,0.09176478 86552.02,0.09176478 134353.4,0.09176478 173104,38750.83 173104,86552.19 173104,134353.3 134353.4,173104.1 86552.02,173104.1 38750.67,173104.1 0.02583636,134353.3 0.02583636,86552.19 Z"
         style="fill:none;stroke:#ffdf1f;stroke-width:25400;stroke-linecap:butt;stroke-linejoin:round;stroke-miterlimit:10;stroke-dasharray:none;stroke-opacity:1"
         id="path44"
         inkscape:connector-curvature="0" /></g><path
       d="m 232.34806,132.51578 c 0,3.11485 2.52505,5.6399 5.63991,5.6399 3.11485,0 5.6399,-2.52505 5.6399,-5.6399 0,-3.11486 -2.52505,-5.63991 -5.6399,-5.63991 -3.11486,0 -5.63991,2.52505 -5.63991,5.63991 z"
       style="fill:#0433ff;fill-opacity:1;fill-rule:evenodd;stroke:none;stroke-width:0.82756001"
       id="path46"
       inkscape:connector-curvature="0" /><g
       id="g48"
       transform="matrix(6.516219e-5,0,0,-6.516219e-5,232.34806,138.15568)"><path
         d="M -0.05844671,86552.13 C -0.05844671,38750.78 38750.68,0.040943 86552.04,0.040943 134353.4,0.040943 173104.1,38750.78 173104.1,86552.13 173104.1,134353.3 134353.4,173104 86552.04,173104 38750.68,173104 -0.05844671,134353.3 -0.05844671,86552.13 Z"
         style="fill:none;stroke:#0433ff;stroke-width:25400;stroke-linecap:butt;stroke-linejoin:round;stroke-miterlimit:10;stroke-dasharray:none;stroke-opacity:1"
         id="path50"
         inkscape:connector-curvature="0" /></g><g
       id="g52"
       transform="matrix(6.516219e-5,0,0,-6.516219e-5,86.588761,115.42782)"><path
         d="M -0.03026092,0.07621145 2919840,1.045145"
         style="fill:none;stroke:#000000;stroke-width:12700;stroke-linecap:butt;stroke-linejoin:round;stroke-miterlimit:10;stroke-dasharray:none;stroke-opacity:1"
         id="path54"
         inkscape:connector-curvature="0" /></g><path
       d="m 92.681589,115.25064 c 0,3.11477 2.525134,5.6399 5.639987,5.6399 3.114774,0 5.639904,-2.52513 5.639904,-5.6399 0,-3.11485 -2.52513,-5.6399 -5.639904,-5.6399 -3.114853,0 -5.639987,2.52505 -5.639987,5.6399 z"
       style="fill:#ffca00;fill-opacity:1;fill-rule:evenodd;stroke:none;stroke-width:0.82756001"
       id="path56"
       inkscape:connector-curvature="0" /><g
       id="g58"
       transform="matrix(6.516219e-5,0,0,-6.516219e-5,92.681589,120.89054)"><path
         d="M 0.02583636,86552.06 C 0.02583636,38750.71 38750.67,-0.02896619 86552.02,-0.02896619 134353.4,-0.02896619 173104,38750.71 173104,86552.06 173104,134353.2 134353.4,173104 86552.02,173104 38750.67,173104 0.02583636,134353.2 0.02583636,86552.06 Z"
         style="fill:none;stroke:#ffdf1f;stroke-width:25400;stroke-linecap:butt;stroke-linejoin:round;stroke-miterlimit:10;stroke-dasharray:none;stroke-opacity:1"
         id="path60"
         inkscape:connector-curvature="0" /></g><path
       d="m 232.34806,115.68155 c 0,3.11485 2.52505,5.63999 5.63991,5.63999 3.11485,0 5.6399,-2.52514 5.6399,-5.63999 0,-3.11477 -2.52505,-5.6399 -5.6399,-5.6399 -3.11486,0 -5.63991,2.52513 -5.63991,5.6399 z"
       style="fill:#0433ff;fill-opacity:1;fill-rule:evenodd;stroke:none;stroke-width:0.82756001"
       id="path62"
       inkscape:connector-curvature="0" /><g
       id="g64"
       transform="matrix(6.516219e-5,0,0,-6.516219e-5,232.34806,121.32154)"><path
         d="M -0.05844671,86552.12 C -0.05844671,38750.77 38750.68,0.03263873 86552.04,0.03263873 134353.4,0.03263873 173104.1,38750.77 173104.1,86552.12 173104.1,134353.3 134353.4,173104 86552.04,173104 38750.68,173104 -0.05844671,134353.3 -0.05844671,86552.12 Z"
         style="fill:none;stroke:#0433ff;stroke-width:25400;stroke-linecap:butt;stroke-linejoin:round;stroke-miterlimit:10;stroke-dasharray:none;stroke-opacity:1"
         id="path66"
         inkscape:connector-curvature="0" /></g><g
       id="g68"
       transform="matrix(6.516219e-5,0,0,-6.516219e-5,86.588761,98.595829)"><path
         d="M -0.03026092,0.05834995 2919840,1.027283"
         style="fill:none;stroke:#000000;stroke-width:12700;stroke-linecap:butt;stroke-linejoin:round;stroke-miterlimit:10;stroke-dasharray:none;stroke-opacity:1"
         id="path70"
         inkscape:connector-curvature="0" /></g><path
       d="m 92.681589,98.418566 c 0,3.114854 2.525134,5.639904 5.639987,5.639904 3.114774,0 5.639904,-2.52505 5.639904,-5.639904 0,-3.114853 -2.52513,-5.639904 -5.639904,-5.639904 -3.114853,0 -5.639987,2.525051 -5.639987,5.639904 z"
       style="fill:#ffca00;fill-opacity:1;fill-rule:evenodd;stroke:none;stroke-width:0.82756001"
       id="path72"
       inkscape:connector-curvature="0" /><g
       id="g74"
       transform="matrix(6.516219e-5,0,0,-6.516219e-5,92.681589,104.05847)"><path
         d="M 0.02583636,86552.02 C 0.02583636,38750.66 38750.67,0.01899889 86552.02,0.01899889 134353.4,0.01899889 173104,38750.66 173104,86552.02 173104,134353.4 134353.4,173104 86552.02,173104 38750.67,173104 0.02583636,134353.4 0.02583636,86552.02 Z"
         style="fill:none;stroke:#ffdf1f;stroke-width:25400;stroke-linecap:butt;stroke-linejoin:round;stroke-miterlimit:10;stroke-dasharray:none;stroke-opacity:1"
         id="path76"
         inkscape:connector-curvature="0" /></g><path
       d="m 232.34806,98.849642 c 0,3.114858 2.52505,5.639908 5.63991,5.639908 3.11485,0 5.6399,-2.52505 5.6399,-5.639908 0,-3.114853 -2.52505,-5.639904 -5.6399,-5.639904 -3.11486,0 -5.63991,2.525051 -5.63991,5.639904 z"
       style="fill:#0433ff;fill-opacity:1;fill-rule:evenodd;stroke:none;stroke-width:0.82756001"
       id="path78"
       inkscape:connector-curvature="0" /><g
       id="g80"
       transform="matrix(6.516219e-5,0,0,-6.516219e-5,232.34806,104.48955)"><path
         d="M -0.05844671,86552.04 C -0.05844671,38750.69 38750.68,0.0428839 86552.04,0.0428839 134353.4,0.0428839 173104.1,38750.69 173104.1,86552.04 173104.1,134353.4 134353.4,173104 86552.04,173104 38750.68,173104 -0.05844671,134353.4 -0.05844671,86552.04 Z"
         style="fill:none;stroke:#0433ff;stroke-width:25400;stroke-linecap:butt;stroke-linejoin:round;stroke-miterlimit:10;stroke-dasharray:none;stroke-opacity:1"
         id="path82"
         inkscape:connector-curvature="0" /></g><g
       id="g84"
       transform="matrix(6.516219e-5,0,0,-6.516219e-5,86.588761,81.148324)"><path
         d="M -0.03026092,0.03025301 2919840,0.9991863"
         style="fill:none;stroke:#000000;stroke-width:12700;stroke-linecap:butt;stroke-linejoin:round;stroke-miterlimit:10;stroke-dasharray:none;stroke-opacity:1"
         id="path86"
         inkscape:connector-curvature="0" /></g><path
       d="m 92.681589,80.971019 c 0,3.11487 2.525134,5.639921 5.639987,5.639921 3.114774,0 5.639904,-2.525051 5.639904,-5.639921 0,-3.114845 -2.52513,-5.63992 -5.639904,-5.63992 -3.114853,0 -5.639987,2.525075 -5.639987,5.63992 z"
       style="fill:#ffca00;fill-opacity:1;fill-rule:evenodd;stroke:none;stroke-width:0.82756001"
       id="path88"
       inkscape:connector-curvature="0" /><g
       id="g90"
       transform="matrix(6.516219e-5,0,0,-6.516219e-5,92.681589,86.61094)"><path
         d="M 0.02583636,86551.96 C 0.02583636,38750.61 38750.67,-0.03720473 86552.02,-0.03720473 134353.4,-0.03720473 173104,38750.61 173104,86551.96 173104,134353.3 134353.4,173104 86552.02,173104 38750.67,173104 0.02583636,134353.3 0.02583636,86551.96 Z"
         style="fill:none;stroke:#ffdf1f;stroke-width:25400;stroke-linecap:butt;stroke-linejoin:round;stroke-miterlimit:10;stroke-dasharray:none;stroke-opacity:1"
         id="path92"
         inkscape:connector-curvature="0" /></g><path
       d="m 232.34806,81.40207 c 0,3.114812 2.52505,5.639946 5.63991,5.639946 3.11485,0 5.6399,-2.525134 5.6399,-5.639946 0,-3.114836 -2.52505,-5.639912 -5.6399,-5.639912 -3.11486,0 -5.63991,2.525076 -5.63991,5.639912 z"
       style="fill:#0433ff;fill-opacity:1;fill-rule:evenodd;stroke:none;stroke-width:0.82756001"
       id="path94"
       inkscape:connector-curvature="0" /><g
       id="g96"
       transform="matrix(6.516219e-5,0,0,-6.516219e-5,232.34806,87.042016)"><path
         d="M -0.05844671,86551.98 C -0.05844671,38750.63 38750.68,-0.01331972 86552.04,-0.01331972 134353.4,-0.01331972 173104.1,38750.63 173104.1,86551.98 173104.1,134353.3 134353.4,173104 86552.04,173104 38750.68,173104 -0.05844671,134353.3 -0.05844671,86551.98 Z"
         style="fill:none;stroke:#0433ff;stroke-width:25400;stroke-linecap:butt;stroke-linejoin:round;stroke-miterlimit:10;stroke-dasharray:none;stroke-opacity:1"
         id="path98"
         inkscape:connector-curvature="0" /></g><g
       id="g100"
       transform="matrix(6.516219e-5,0,0,-6.516219e-5,86.588761,66.653644)"><path
         d="M -0.03026092,0.0097439 2919840,0.9786772"
         style="fill:none;stroke:#000000;stroke-width:12700;stroke-linecap:butt;stroke-linejoin:round;stroke-miterlimit:10;stroke-dasharray:none;stroke-opacity:1"
         id="path102"
         inkscape:connector-curvature="0" /></g><path
       d="m 92.681589,66.476339 c 0,3.114837 2.525134,5.639912 5.639987,5.639912 3.114774,0 5.639904,-2.525075 5.639904,-5.639912 0,-3.114845 -2.52513,-5.639921 -5.639904,-5.639921 -3.114853,0 -5.639987,2.525076 -5.639987,5.639921 z"
       style="fill:#ffca00;fill-opacity:1;fill-rule:evenodd;stroke:none;stroke-width:0.82756001"
       id="path104"
       inkscape:connector-curvature="0" /><g
       id="g106"
       transform="matrix(6.516219e-5,0,0,-6.516219e-5,92.681589,72.116251)"><path
         d="M 0.02583636,86552 C 0.02583636,38750.65 38750.67,0.00478616 86552.02,0.00478616 134353.4,0.00478616 173104,38750.65 173104,86552 c 0,47801.4 -38750.6,86552 -86551.98,86552 C 38750.67,173104 0.02583636,134353.4 0.02583636,86552 Z"
         style="fill:none;stroke:#ffdf1f;stroke-width:25400;stroke-linecap:butt;stroke-linejoin:round;stroke-miterlimit:10;stroke-dasharray:none;stroke-opacity:1"
         id="path108"
         inkscape:connector-curvature="0" /></g><path
       d="m 232.34806,66.90739 c 0,3.114845 2.52505,5.639921 5.63991,5.639921 3.11485,0 5.6399,-2.525076 5.6399,-5.639921 0,-3.114836 -2.52505,-5.639921 -5.6399,-5.639921 -3.11486,0 -5.63991,2.525085 -5.63991,5.639921 z"
       style="fill:#0433ff;fill-opacity:1;fill-rule:evenodd;stroke:none;stroke-width:0.82756001"
       id="path110"
       inkscape:connector-curvature="0" /><g
       id="g112"
       transform="matrix(6.516219e-5,0,0,-6.516219e-5,232.34806,72.547311)"><path
         d="M -0.05844671,86552.02 C -0.05844671,38750.67 38750.68,0.02867118 86552.04,0.02867118 134353.4,0.02867118 173104.1,38750.67 173104.1,86552.02 173104.1,134353.4 134353.4,173104 86552.04,173104 38750.68,173104 -0.05844671,134353.4 -0.05844671,86552.02 Z"
         style="fill:none;stroke:#0433ff;stroke-width:25400;stroke-linecap:butt;stroke-linejoin:round;stroke-miterlimit:10;stroke-dasharray:none;stroke-opacity:1"
         id="path114"
         inkscape:connector-curvature="0" /></g><g
       id="g116"
       transform="matrix(0.82756,0,0,0.82756,51.112638,266.92865)"><text
         transform="matrix(1,0,0,-1,0,-14)"
         style="font-variant:normal;font-weight:normal;font-size:14px;font-family:LMRoman12;-inkscape-font-specification:LMRoman12-Regular;writing-mode:lr-tb;fill:#000000;fill-opacity:1;fill-rule:nonzero;stroke:none"
         id="text120"><tspan
           x="0 4.9419999 12.558 20.174 23.982 28.546 35.405998"
           y="0"
           sodipodi:role="line"
           id="tspan118">Ind. 1 </tspan></text>
</g><g
       id="g122"
       transform="matrix(0.82756,0,0,0.82756,51.112638,249.90144)"><text
         transform="matrix(1,0,0,-1,0,-14)"
         style="font-variant:normal;font-weight:normal;font-size:14px;font-family:LMRoman12;-inkscape-font-specification:LMRoman12-Regular;writing-mode:lr-tb;fill:#000000;fill-opacity:1;fill-rule:nonzero;stroke:none"
         id="text126"><tspan
           x="0 4.9419999 12.558 20.174 23.982 28.546 35.405998"
           y="0"
           sodipodi:role="line"
           id="tspan124">Ind. 2 </tspan></text>
</g><g
       id="g128"
       transform="matrix(0.82756,0,0,0.82756,51.112638,232.39308)"><text
         transform="matrix(1,0,0,-1,0,-14)"
         style="font-variant:normal;font-weight:normal;font-size:14px;font-family:LMRoman12;-inkscape-font-specification:LMRoman12-Regular;writing-mode:lr-tb;fill:#000000;fill-opacity:1;fill-rule:nonzero;stroke:none"
         id="text132"><tspan
           x="0 4.9419999 12.558 20.174 23.982 28.546 35.405998"
           y="0"
           sodipodi:role="line"
           id="tspan130">Ind. 3 </tspan></text>
</g><g
       id="g134"
       transform="matrix(0.82756,0,0,0.82756,51.150366,216.00218)"><text
         transform="matrix(1,0,0,-1,0,-14)"
         style="font-variant:normal;font-weight:normal;font-size:14px;font-family:LMRoman12;-inkscape-font-specification:LMRoman12-Regular;writing-mode:lr-tb;fill:#000000;fill-opacity:1;fill-rule:nonzero;stroke:none"
         id="text138"><tspan
           x="0 4.9419999 12.558 20.174 23.982 28.546 35.405998"
           y="0"
           sodipodi:role="line"
           id="tspan136">Ind. 4 </tspan></text>
</g><g
       id="g140"
       transform="matrix(0.82756,0,0,0.82756,51.112638,201.04569)"><text
         transform="matrix(1,0,0,-1,0,-14)"
         style="font-variant:normal;font-weight:normal;font-size:14px;font-family:LMRoman12;-inkscape-font-specification:LMRoman12-Regular;writing-mode:lr-tb;fill:#000000;fill-opacity:1;fill-rule:nonzero;stroke:none"
         id="text144"><tspan
           x="0 4.9419999 12.558 20.174 23.982 28.546 35.405998"
           y="0"
           sodipodi:role="line"
           id="tspan142">Ind. 5 </tspan></text>
</g><g
       id="g146"
       transform="matrix(0.82756,0,0,0.82756,52.658743,140.66617)"><text
         transform="matrix(1,0,0,-1,0,-14)"
         style="font-variant:normal;font-weight:normal;font-size:14px;font-family:LMRoman12;-inkscape-font-specification:LMRoman12-Regular;writing-mode:lr-tb;fill:#000000;fill-opacity:1;fill-rule:nonzero;stroke:none"
         id="text150"><tspan
           x="0 4.9419999 12.558 20.174 23.982 28.546 35.405998"
           y="0"
           sodipodi:role="line"
           id="tspan148">Ind. 1 </tspan></text>
</g><g
       id="g152"
       transform="matrix(0.82756,0,0,0.82756,52.658743,123.63895)"><text
         transform="matrix(1,0,0,-1,0,-14)"
         style="font-variant:normal;font-weight:normal;font-size:14px;font-family:LMRoman12;-inkscape-font-specification:LMRoman12-Regular;writing-mode:lr-tb;fill:#000000;fill-opacity:1;fill-rule:nonzero;stroke:none"
         id="text156"><tspan
           x="0 4.9419999 12.558 20.174 23.982 28.546 35.405998"
           y="0"
           sodipodi:role="line"
           id="tspan154">Ind. 2 </tspan></text>
</g><g
       id="g158"
       transform="matrix(0.82756,0,0,0.82756,52.658743,106.13076)"><text
         transform="matrix(1,0,0,-1,0,-14)"
         style="font-variant:normal;font-weight:normal;font-size:14px;font-family:LMRoman12;-inkscape-font-specification:LMRoman12-Regular;writing-mode:lr-tb;fill:#000000;fill-opacity:1;fill-rule:nonzero;stroke:none"
         id="text162"><tspan
           x="0 4.9419999 12.558 20.174 23.982 28.546 35.405998"
           y="0"
           sodipodi:role="line"
           id="tspan160">Ind. 3 </tspan></text>
</g><g
       id="g164"
       transform="matrix(0.82756,0,0,0.82756,52.696414,89.739779)"><text
         transform="matrix(1,0,0,-1,0,-14)"
         style="font-variant:normal;font-weight:normal;font-size:14px;font-family:LMRoman12;-inkscape-font-specification:LMRoman12-Regular;writing-mode:lr-tb;fill:#000000;fill-opacity:1;fill-rule:nonzero;stroke:none"
         id="text168"><tspan
           x="0 4.9419999 12.558 20.174 23.982 28.546 35.405998"
           y="0"
           sodipodi:role="line"
           id="tspan166">Ind. 4 </tspan></text>
</g><g
       id="g170"
       transform="matrix(0.82756,0,0,0.82756,52.658743,74.783212)"><text
         transform="matrix(1,0,0,-1,0,-14)"
         style="font-variant:normal;font-weight:normal;font-size:14px;font-family:LMRoman12;-inkscape-font-specification:LMRoman12-Regular;writing-mode:lr-tb;fill:#000000;fill-opacity:1;fill-rule:nonzero;stroke:none"
         id="text174"><tspan
           x="0 4.9419999 12.558 20.174 23.982 28.546 35.405998"
           y="0"
           sodipodi:role="line"
           id="tspan172">Ind. 5 </tspan></text>
</g><g
       id="g176"
       transform="matrix(0.82756,0,0,0.82756,67.791233,291.53491)"><text
         transform="matrix(1,0,0,-1,2.626511,-14)"
         style="font-variant:normal;font-weight:normal;font-size:14px;font-family:LMRoman12;-inkscape-font-specification:LMRoman12-Regular;writing-mode:lr-tb;fill:#000000;fill-opacity:1;fill-rule:nonzero;stroke:none"
         id="text180"><tspan
           x="0 10.276 16.365999 23.982 29.316 34.650002 41.509998 45.318001 49.882 57.119999 63.98 69.314003 73.122002"
           y="0"
           sodipodi:role="line"
           id="tspan178">Neutral var. </tspan></text>
</g><g
       id="g182"
       transform="matrix(0.82756,0,0,0.82756,206.66954,291.53491)"><text
         transform="matrix(1,0,0,-1,2.626511,-14)"
         style="font-variant:normal;font-weight:normal;font-size:14px;font-family:LMRoman12;-inkscape-font-specification:LMRoman12-Regular;writing-mode:lr-tb;fill:#000000;fill-opacity:1;fill-rule:nonzero;stroke:none"
         id="text186"><tspan
           x="0 10.276 16.365999 23.982 29.316 34.650002 41.509998 45.318001 49.882 57.119999 63.98 69.314003 73.122002"
           y="0"
           sodipodi:role="line"
           id="tspan184">Neutral var. </tspan></text>
</g><g
       id="g188"
       transform="matrix(0.82756,0,0,0.82756,134.06472,161.82034)"><text
         transform="matrix(1,0,0,-1,0,-16)"
         style="font-variant:normal;font-weight:normal;font-size:16px;font-family:LMRoman12;-inkscape-font-specification:LMRoman12-Regular;writing-mode:lr-tb;fill:#000000;fill-opacity:1;fill-rule:nonzero;stroke:none"
         id="text192"><tspan
           x="0 11.744 16.528 22.624001 29.584 35.68 40.896 47.071999 54.032001 58.383999 65.344002 72.304001 78.400002 82.751999 90.592003 99.295998"
           y="0"
           sodipodi:role="line"
           id="tspan190">After selection </tspan></text>
</g><g
       id="g194"
       transform="matrix(6.516219e-5,0,0,-6.516219e-5,87.241292,258.33452)"><path
         d="M 0.01992413,0.04655457 2919840,1.209275"
         style="fill:none;stroke:#000000;stroke-width:12700;stroke-linecap:butt;stroke-linejoin:round;stroke-miterlimit:10;stroke-dasharray:none;stroke-opacity:1"
         id="path196"
         inkscape:connector-curvature="0" /></g><g
       id="g198"
       transform="matrix(6.516219e-5,0,0,-6.516219e-5,87.241292,241.52281)"><path
         d="M 0.01992413,0.1290784 2919840,1.291798"
         style="fill:none;stroke:#000000;stroke-width:12700;stroke-linecap:butt;stroke-linejoin:round;stroke-miterlimit:10;stroke-dasharray:none;stroke-opacity:1"
         id="path200"
         inkscape:connector-curvature="0" /></g><g
       id="g202"
       transform="matrix(6.516219e-5,0,0,-6.516219e-5,87.241292,224.28001)"><path
         d="M 0.01992413,5.838275e-4 2919840,1.163304"
         style="fill:none;stroke:#000000;stroke-width:12700;stroke-linecap:butt;stroke-linejoin:round;stroke-miterlimit:10;stroke-dasharray:none;stroke-opacity:1"
         id="path204"
         inkscape:connector-curvature="0" /></g><g
       id="g206"
       transform="matrix(6.516219e-5,0,0,-6.516219e-5,87.241292,207.89937)"><path
         d="M 0.01992413,0.03820607 2919840,1.007139"
         style="fill:none;stroke:#000000;stroke-width:12700;stroke-linecap:butt;stroke-linejoin:round;stroke-miterlimit:10;stroke-dasharray:none;stroke-opacity:1"
         id="path208"
         inkscape:connector-curvature="0" /></g><path
       d="m 93.986237,258.56781 c 0,2.97301 2.410021,5.38303 5.38303,5.38303 2.972923,0 5.382943,-2.41002 5.382943,-5.38303 0,-2.97292 -2.41002,-5.38295 -5.382943,-5.38295 -2.973009,0 -5.38303,2.41003 -5.38303,5.38295 z"
       style="fill:#ffca00;fill-opacity:1;fill-rule:evenodd;stroke:none;stroke-width:0.82756001"
       id="path210"
       inkscape:connector-curvature="0" /><g
       id="g212"
       transform="matrix(6.516219e-5,0,0,-6.516219e-5,93.986237,263.95084)"><path
         d="M -0.03132631,82608.87 C -0.03132631,36985.29 36985.31,-0.05459118 82608.99,-0.05459118 128232.7,-0.05459118 165218,36985.29 165218,82608.87 165218,128232.4 128232.7,165217.8 82608.99,165217.8 36985.31,165217.8 -0.03132631,128232.4 -0.03132631,82608.87 Z"
         style="fill:none;stroke:#ffdf1f;stroke-width:25400;stroke-linecap:butt;stroke-linejoin:round;stroke-miterlimit:10;stroke-dasharray:none;stroke-opacity:1"
         id="path214"
         inkscape:connector-curvature="0" /></g><path
       d="m 93.986237,241.71364 c 0,2.97293 2.410021,5.38295 5.38303,5.38295 2.972923,0 5.382943,-2.41002 5.382943,-5.38295 0,-2.97292 -2.41002,-5.38294 -5.382943,-5.38294 -2.973009,0 -5.38303,2.41002 -5.38303,5.38294 z"
       style="fill:#0433ff;fill-opacity:1;fill-rule:evenodd;stroke:none;stroke-width:0.82756001"
       id="path216"
       inkscape:connector-curvature="0" /><g
       id="g218"
       transform="matrix(6.516219e-5,0,0,-6.516219e-5,93.986237,247.09659)"><path
         d="M -0.03132631,82609.02 C -0.03132631,36985.43 36985.31,0.08894622 82608.99,0.08894622 128232.7,0.08894622 165218,36985.43 165218,82609.02 165218,128232.6 128232.7,165217.9 82608.99,165217.9 36985.31,165217.9 -0.03132631,128232.6 -0.03132631,82609.02 Z"
         style="fill:none;stroke:#0433ff;stroke-width:25400;stroke-linecap:butt;stroke-linejoin:round;stroke-miterlimit:10;stroke-dasharray:none;stroke-opacity:1"
         id="path220"
         inkscape:connector-curvature="0" /></g><path
       d="m 93.986237,224.51339 c 0,2.97292 2.410021,5.38294 5.38303,5.38294 2.972923,0 5.382943,-2.41002 5.382943,-5.38294 0,-2.97293 -2.41002,-5.38303 -5.382943,-5.38303 -2.973009,0 -5.38303,2.4101 -5.38303,5.38303 z"
       style="fill:#ffca00;fill-opacity:1;fill-rule:evenodd;stroke:none;stroke-width:0.82756001"
       id="path222"
       inkscape:connector-curvature="0" /><g
       id="g224"
       transform="matrix(6.516219e-5,0,0,-6.516219e-5,93.986237,229.89633)"><path
         d="M -0.03132631,82609.07 C -0.03132631,36985.5 36985.31,0.1494381 82608.99,0.1494381 128232.7,0.1494381 165218,36985.5 165218,82609.07 165218,128232.6 128232.7,165218 82608.99,165218 36985.31,165218 -0.03132631,128232.6 -0.03132631,82609.07 Z"
         style="fill:none;stroke:#ffdf1f;stroke-width:25400;stroke-linecap:butt;stroke-linejoin:round;stroke-miterlimit:10;stroke-dasharray:none;stroke-opacity:1"
         id="path226"
         inkscape:connector-curvature="0" /></g><path
       d="m 234.03165,225.16559 c 0,2.97292 2.41002,5.38294 5.38295,5.38294 2.97301,0 5.38303,-2.41002 5.38303,-5.38294 0,-2.97293 -2.41002,-5.38303 -5.38303,-5.38303 -2.97293,0 -5.38295,2.4101 -5.38295,5.38303 z"
       style="fill:#0433ff;fill-opacity:1;fill-rule:evenodd;stroke:none;stroke-width:0.82756001"
       id="path228"
       inkscape:connector-curvature="0" /><g
       id="g230"
       transform="matrix(6.516219e-5,0,0,-6.516219e-5,234.03165,230.54853)"><path
         d="M -0.121856,82608.99 C -0.121856,36985.41 36985.22,0.0689193 82608.8,0.0689193 c 45623.6,0 82608.9,36985.3410807 82608.9,82608.9210807 0,45623.61 -36985.3,82608.91 -82608.9,82608.91 C 36985.22,165217.9 -0.121856,128232.6 -0.121856,82608.99 Z"
         style="fill:none;stroke:#0433ff;stroke-width:25400;stroke-linecap:butt;stroke-linejoin:round;stroke-miterlimit:10;stroke-dasharray:none;stroke-opacity:1"
         id="path232"
         inkscape:connector-curvature="0" /></g><path
       d="m 233.65271,258.99889 c 0,2.97292 2.4101,5.38303 5.38303,5.38303 2.97293,0 5.38295,-2.41011 5.38295,-5.38303 0,-2.97293 -2.41002,-5.38295 -5.38295,-5.38295 -2.97293,0 -5.38303,2.41002 -5.38303,5.38295 z"
       style="fill:#0433ff;fill-opacity:1;fill-rule:evenodd;stroke:none;stroke-width:0.82756001"
       id="path234"
       inkscape:connector-curvature="0" /><g
       id="g236"
       transform="matrix(6.516219e-5,0,0,-6.516219e-5,233.65271,264.38192)"><path
         d="M -0.02167612,82609.02 C -0.02167612,36985.44 36985.32,0.09429383 82608.9,0.09429383 c 45623.6,0 82608.9,36985.34570617 82608.9,82608.92570617 0,45623.58 -36985.3,82608.88 -82608.9,82608.88 C 36985.32,165217.9 -0.02167612,128232.6 -0.02167612,82609.02 Z"
         style="fill:none;stroke:#0433ff;stroke-width:25400;stroke-linecap:butt;stroke-linejoin:round;stroke-miterlimit:10;stroke-dasharray:none;stroke-opacity:1"
         id="path238"
         inkscape:connector-curvature="0" /></g><g
       id="g240"
       transform="matrix(6.516219e-5,0,0,-6.516219e-5,87.241292,192.9668)"><path
         d="M 0.01992413,0.1167834 2919840,1.085717"
         style="fill:none;stroke:#000000;stroke-width:12700;stroke-linecap:butt;stroke-linejoin:round;stroke-miterlimit:10;stroke-dasharray:none;stroke-opacity:1"
         id="path242"
         inkscape:connector-curvature="0" /></g><path
       d="m 94.420706,208.15683 c 0,2.97293 2.410103,5.38295 5.38303,5.38295 2.972924,0 5.382944,-2.41002 5.382944,-5.38295 0,-2.97301 -2.41002,-5.38303 -5.382944,-5.38303 -2.972927,0 -5.38303,2.41002 -5.38303,5.38303 z"
       style="fill:#ffca00;fill-opacity:1;fill-rule:evenodd;stroke:none;stroke-width:0.82756001"
       id="path244"
       inkscape:connector-curvature="0" /><g
       id="g246"
       transform="matrix(6.516219e-5,0,0,-6.516219e-5,94.420706,213.53978)"><path
         d="M 0.00165105,82609.09 C 0.00165105,36985.51 36985.35,0.1610637 82609.02,0.1610637 128232.7,0.1610637 165218,36985.51 165218,82609.09 165218,128232.9 128232.7,165218.2 82609.02,165218.2 36985.35,165218.2 0.00165105,128232.9 0.00165105,82609.09 Z"
         style="fill:none;stroke:#ffdf1f;stroke-width:25400;stroke-linecap:butt;stroke-linejoin:round;stroke-miterlimit:10;stroke-dasharray:none;stroke-opacity:1"
         id="path248"
         inkscape:connector-curvature="0" /></g><path
       d="m 234.03165,241.36756 c 0,2.97292 2.41002,5.38294 5.38295,5.38294 2.97301,0 5.38303,-2.41002 5.38303,-5.38294 0,-2.97301 -2.41002,-5.38303 -5.38303,-5.38303 -2.97293,0 -5.38295,2.41002 -5.38295,5.38303 z"
       style="fill:#ffca00;fill-opacity:1;fill-rule:evenodd;stroke:none;stroke-width:0.82756001"
       id="path250"
       inkscape:connector-curvature="0" /><g
       id="g252"
       transform="matrix(6.516219e-5,0,0,-6.516219e-5,234.03165,246.7505)"><path
         d="M -0.121856,82608.95 C -0.121856,36985.38 36985.22,0.03104728 82608.8,0.03104728 c 45623.6,0 82608.9,36985.34895272 82608.9,82608.91895272 0,45623.55 -36985.3,82608.95 -82608.9,82608.95 C 36985.22,165217.9 -0.121856,128232.5 -0.121856,82608.95 Z"
         style="fill:none;stroke:#ffdf1f;stroke-width:25400;stroke-linecap:butt;stroke-linejoin:round;stroke-miterlimit:10;stroke-dasharray:none;stroke-opacity:1"
         id="path254"
         inkscape:connector-curvature="0" /></g><path
       d="m 207.34888,241.68708 c 0,2.97292 2.41011,5.38294 5.38303,5.38294 2.97293,0 5.38295,-2.41002 5.38295,-5.38294 0,-2.97293 -2.41002,-5.38295 -5.38295,-5.38295 -2.97292,0 -5.38303,2.41002 -5.38303,5.38295 z"
       style="fill:#ff2600;fill-opacity:1;fill-rule:evenodd;stroke:none;stroke-width:0.82756001"
       id="path256"
       inkscape:connector-curvature="0" /><path
       d="m 179.01472,192.7691 c 0,2.97292 2.41002,5.38294 5.38294,5.38294 2.97293,0 5.38303,-2.41002 5.38303,-5.38294 0,-2.97293 -2.4101,-5.38303 -5.38303,-5.38303 -2.97292,0 -5.38294,2.4101 -5.38294,5.38303 z"
       style="fill:#ff2600;fill-opacity:1;fill-rule:evenodd;stroke:none;stroke-width:0.82756001"
       id="path258"
       inkscape:connector-curvature="0" /><path
       d="m 234.03165,207.70266 c 0,2.97293 2.41002,5.38303 5.38295,5.38303 2.97301,0 5.38303,-2.4101 5.38303,-5.38303 0,-2.97292 -2.41002,-5.38294 -5.38303,-5.38294 -2.97293,0 -5.38295,2.41002 -5.38295,5.38294 z"
       style="fill:#0433ff;fill-opacity:1;fill-rule:evenodd;stroke:none;stroke-width:0.82756001"
       id="path260"
       inkscape:connector-curvature="0" /><g
       id="g262"
       transform="matrix(6.516219e-5,0,0,-6.516219e-5,234.03165,213.08569)"><path
         d="M -0.121856,82609.04 C -0.121856,36985.46 36985.22,0.1166032 82608.8,0.1166032 c 45623.6,0 82608.9,36985.3433968 82608.9,82608.9233968 0,45623.76 -36985.3,82609.16 -82608.9,82609.16 C 36985.22,165218.2 -0.121856,128232.8 -0.121856,82609.04 Z"
         style="fill:none;stroke:#0433ff;stroke-width:25400;stroke-linecap:butt;stroke-linejoin:round;stroke-miterlimit:10;stroke-dasharray:none;stroke-opacity:1"
         id="path264"
         inkscape:connector-curvature="0" /></g><path
       d="m 234.03165,193.20025 c 0,2.97293 2.41002,5.38295 5.38295,5.38295 2.97301,0 5.38303,-2.41002 5.38303,-5.38295 0,-2.97292 -2.41002,-5.38303 -5.38303,-5.38303 -2.97293,0 -5.38295,2.41011 -5.38295,5.38303 z"
       style="fill:#ffca00;fill-opacity:1;fill-rule:evenodd;stroke:none;stroke-width:0.82756001"
       id="path266"
       inkscape:connector-curvature="0" /><g
       id="g268"
       transform="matrix(6.516219e-5,0,0,-6.516219e-5,234.03165,198.5832)"><path
         d="M -0.121856,82608.97 C -0.121856,36985.39 36985.22,0.04670441 82608.8,0.04670441 c 45623.6,0 82608.9,36985.34329559 82608.9,82608.92329559 0,45623.73 -36985.3,82609.13 -82608.9,82609.13 C 36985.22,165218.1 -0.121856,128232.7 -0.121856,82608.97 Z"
         style="fill:none;stroke:#ffdf1f;stroke-width:25400;stroke-linecap:butt;stroke-linejoin:round;stroke-miterlimit:10;stroke-dasharray:none;stroke-opacity:1"
         id="path270"
         inkscape:connector-curvature="0" /></g><path
       d="m 93.986237,193.20025 c 0,2.97293 2.410021,5.38295 5.38303,5.38295 2.972923,0 5.382943,-2.41002 5.382943,-5.38295 0,-2.97292 -2.41002,-5.38303 -5.382943,-5.38303 -2.973009,0 -5.38303,2.41011 -5.38303,5.38303 z"
       style="fill:#0433ff;fill-opacity:1;fill-rule:evenodd;stroke:none;stroke-width:0.82756001"
       id="path272"
       inkscape:connector-curvature="0" /><g
       id="g274"
       transform="matrix(6.516219e-5,0,0,-6.516219e-5,93.986237,198.5832)"><path
         d="M -0.03132631,82608.97 C -0.03132631,36985.39 36985.31,0.04670441 82608.99,0.04670441 128232.7,0.04670441 165218,36985.39 165218,82608.97 165218,128232.7 128232.7,165218.1 82608.99,165218.1 36985.31,165218.1 -0.03132631,128232.7 -0.03132631,82608.97 Z"
         style="fill:none;stroke:#0433ff;stroke-width:25400;stroke-linecap:butt;stroke-linejoin:round;stroke-miterlimit:10;stroke-dasharray:none;stroke-opacity:1"
         id="path276"
         inkscape:connector-curvature="0" /></g><g
       id="g516"
       transform="matrix(0.82756,0,0,0.82756,208.70153,272.07467)"><text
         transform="matrix(1,0,0,-1,0,-32)"
         style="font-variant:normal;font-weight:normal;font-size:32px;font-family:Calibri;-inkscape-font-specification:Calibri;writing-mode:lr-tb;fill:#ff0000;fill-opacity:1;fill-rule:nonzero;stroke:none"
         id="text520"><tspan
           x="0 9.7983999"
           y="0"
           sodipodi:role="line"
           id="tspan518">-	</tspan></text>
</g><g
       id="g522"
       transform="matrix(0.82756,0,0,0.82756,181.03247,201.52634)"><text
         transform="matrix(1,0,0,-1,0,-32)"
         style="font-variant:normal;font-weight:normal;font-size:32px;font-family:Calibri;-inkscape-font-specification:Calibri;writing-mode:lr-tb;fill:#ff0000;fill-opacity:1;fill-rule:nonzero;stroke:none"
         id="text526"><tspan
           x="0 9.7983999"
           y="0"
           sodipodi:role="line"
           id="tspan524">-	</tspan></text>
</g><g
       id="g540"
       transform="matrix(0.82756,0,0,0.82756,101.00444,322.52744)"><text
         transform="matrix(1,0,0,-1,0,-18)"
         style="font-variant:normal;font-weight:bold;font-size:18px;font-family:LMRoman12;-inkscape-font-specification:LMRoman12-Bold;writing-mode:lr-tb;fill:#000000;fill-opacity:1;fill-rule:nonzero;stroke:none"
         id="text544"><tspan
           x="0 13.842 25.091999 33.372002 39.006001 45.198002 55.889999 61.523998 72.774002 82.907997 89.657997 97.650002 106.884 112.518 121.752 130.752 138.636 144.27 154.40401 165.65401"
           y="0"
           sodipodi:role="line"
           id="tspan542">Purifying selection </tspan></text>
</g></g></svg>