<?xml version="1.0" encoding="UTF-8" standalone="no"?>
<!-- Created with Inkscape (http://www.inkscape.org/) -->

<svg
   xmlns:dc="http://purl.org/dc/elements/1.1/"
   xmlns:cc="http://creativecommons.org/ns#"
   xmlns:rdf="http://www.w3.org/1999/02/22-rdf-syntax-ns#"
   xmlns:svg="http://www.w3.org/2000/svg"
   xmlns="http://www.w3.org/2000/svg"
   xmlns:sodipodi="http://sodipodi.sourceforge.net/DTD/sodipodi-0.dtd"
   xmlns:inkscape="http://www.inkscape.org/namespaces/inkscape"
   id="svg115"
   version="1.1"
   viewBox="0 0 114.4821 44.304737"
   height="44.304737mm"
   width="114.4821mm"
   inkscape:version="0.92.3 (2405546, 2018-03-11)"
   sodipodi:docname="emergence_of_fst.ink.svg">
  <sodipodi:namedview
     inkscape:window-maximized="1"
     inkscape:window-y="27"
     inkscape:window-x="0"
     inkscape:window-height="1016"
     inkscape:window-width="1920"
     showgrid="false"
     inkscape:current-layer="layer4"
     inkscape:document-units="mm"
     inkscape:cy="133.22485"
     inkscape:cx="205.83115"
     inkscape:zoom="2.8"
     inkscape:pageshadow="2"
     inkscape:pageopacity="0.0"
     borderopacity="1.0"
     bordercolor="#666666"
     pagecolor="#ffffff"
     id="base"
     fit-margin-top="0"
     fit-margin-left="0"
     fit-margin-right="0"
     fit-margin-bottom="0" />
  <defs
     id="defs109">
    <marker
       inkscape:isstock="true"
       style="overflow:visible"
       id="Arrow1Lstart"
       refX="0"
       refY="0"
       orient="auto"
       inkscape:stockid="Arrow1Lstart">
      <path
         inkscape:connector-curvature="0"
         transform="matrix(0.8,0,0,0.8,10,0)"
         style="fill:#000000;fill-opacity:1;fill-rule:evenodd;stroke:#000000;stroke-width:1.00000003pt;stroke-opacity:1"
         d="M 0,0 5,-5 -12.5,0 5,5 Z"
         id="path818" />
    </marker>
    <marker
       inkscape:collect="always"
       inkscape:isstock="true"
       style="overflow:visible"
       id="Arrow1Lend"
       refX="0"
       refY="0"
       orient="auto"
       inkscape:stockid="Arrow1Lend">
      <path
         inkscape:connector-curvature="0"
         transform="matrix(-0.8,0,0,-0.8,-10,0)"
         style="fill:#000000;fill-opacity:1;fill-rule:evenodd;stroke:#000000;stroke-width:1.00000003pt;stroke-opacity:1"
         d="M 0,0 5,-5 -12.5,0 5,5 Z"
         id="path821" />
    </marker>
  </defs>
  <metadata
     id="metadata112">
    <rdf:RDF>
      <cc:Work
         rdf:about="">
        <dc:format>image/svg+xml</dc:format>
        <dc:type
           rdf:resource="http://purl.org/dc/dcmitype/StillImage" />
        <dc:title></dc:title>
      </cc:Work>
    </rdf:RDF>
  </metadata>
  <g
     id="layer1"
     inkscape:groupmode="layer"
     inkscape:label="axis"
     transform="translate(-89.612151,-44.90677)">
    <path
       inkscape:connector-curvature="0"
       id="path816"
       d="M 90.126612,82.245564 H 187.172"
       style="display:inline;fill:none;fill-rule:evenodd;stroke:#000000;stroke-width:0.26499999;stroke-linecap:butt;stroke-linejoin:miter;stroke-miterlimit:4;stroke-dasharray:none;stroke-opacity:1;marker-start:url(#Arrow1Lstart);marker-end:url(#Arrow1Lend)" />
    <text
       id="text1134"
       y="88.33094"
       x="183.75133"
       style="font-style:normal;font-variant:normal;font-weight:normal;font-stretch:normal;font-size:4.23333311px;line-height:125%;font-family:sans-serif;-inkscape-font-specification:'sans-serif, Normal';font-variant-ligatures:normal;font-variant-caps:normal;font-variant-numeric:normal;font-feature-settings:normal;text-align:center;letter-spacing:0px;word-spacing:0px;writing-mode:lr-tb;text-anchor:middle;display:inline;fill:#000000;fill-opacity:1;stroke:none;stroke-width:0.26458332px;stroke-linecap:butt;stroke-linejoin:miter;stroke-opacity:1"
       xml:space="preserve"><tspan
         style="stroke-width:0.26458332px"
         y="88.33094"
         x="183.75133"
         id="tspan1132"
         sodipodi:role="line">genome position</tspan></text>
    <text
       id="text1142"
       y="61.286766"
       x="194.46693"
       style="font-style:normal;font-variant:normal;font-weight:normal;font-stretch:normal;font-size:3.52777767px;line-height:125%;font-family:sans-serif;-inkscape-font-specification:'sans-serif, Normal';font-variant-ligatures:normal;font-variant-caps:normal;font-variant-numeric:normal;font-feature-settings:normal;text-align:center;letter-spacing:0px;word-spacing:0px;writing-mode:lr-tb;text-anchor:middle;display:inline;fill:#000000;fill-opacity:1;stroke:none;stroke-width:0.26458332px;stroke-linecap:butt;stroke-linejoin:miter;stroke-opacity:1"
       xml:space="preserve"><tspan
         style="font-style:normal;font-variant:normal;font-weight:normal;font-stretch:normal;font-size:3.52777767px;font-family:sans-serif;-inkscape-font-specification:'sans-serif, Normal';font-variant-ligatures:normal;font-variant-caps:normal;font-variant-numeric:normal;font-feature-settings:normal;text-align:center;writing-mode:lr-tb;text-anchor:middle;fill:#000000;fill-opacity:1;stroke-width:0.26458332px"
         y="61.286766"
         x="194.46693"
         id="tspan1140"
         sodipodi:role="line">diversity</tspan></text>
    <rect
       y="80.54467"
       x="100.89895"
       height="2.9293137"
       width="24.568455"
       id="rect1220"
       style="display:inline;opacity:1;fill:#00c109;fill-opacity:1;stroke:#ffffff;stroke-width:0.26499999;stroke-linecap:round;stroke-miterlimit:4;stroke-dasharray:none;stroke-dashoffset:0;stroke-opacity:1" />
    <rect
       style="display:inline;opacity:1;fill:#00c109;fill-opacity:1;stroke:#ffffff;stroke-width:0.26499999;stroke-linecap:round;stroke-miterlimit:4;stroke-dasharray:none;stroke-dashoffset:0;stroke-opacity:1"
       id="rect966"
       width="13.134672"
       height="3.5907745"
       x="147.01204"
       y="80.54467" />
    <rect
       y="80.072197"
       x="171.48601"
       height="3.4017868"
       width="7.5595355"
       id="rect968"
       style="display:inline;opacity:1;fill:#00c109;fill-opacity:1;stroke:#ffffff;stroke-width:0.26499999;stroke-linecap:round;stroke-miterlimit:4;stroke-dasharray:none;stroke-dashoffset:0;stroke-opacity:1" />
    <text
       id="text1365"
       y="54.93676"
       x="194.46693"
       style="font-style:normal;font-variant:normal;font-weight:normal;font-stretch:normal;font-size:3.52777767px;line-height:125%;font-family:sans-serif;-inkscape-font-specification:'sans-serif, Normal';font-variant-ligatures:normal;font-variant-caps:normal;font-variant-numeric:normal;font-feature-settings:normal;text-align:center;letter-spacing:0px;word-spacing:0px;writing-mode:lr-tb;text-anchor:middle;display:inline;fill:#ff0000;fill-opacity:1;stroke:none;stroke-width:0.26458332px;stroke-linecap:butt;stroke-linejoin:miter;stroke-opacity:1"
       xml:space="preserve"><tspan
         style="font-style:normal;font-variant:normal;font-weight:normal;font-stretch:normal;font-size:3.52777767px;font-family:sans-serif;-inkscape-font-specification:'sans-serif, Normal';font-variant-ligatures:normal;font-variant-caps:normal;font-variant-numeric:normal;font-feature-settings:normal;text-align:center;writing-mode:lr-tb;text-anchor:middle;fill:#ff0000;fill-opacity:1;stroke-width:0.26458332px"
         y="54.93676"
         x="194.46693"
         id="tspan1363"
         sodipodi:role="line">divergence</tspan></text>
  </g>
  <g
     inkscape:groupmode="layer"
     id="layer2"
     inkscape:label="time0"
     style="display:inline"
     transform="translate(-89.612151,-44.90677)">
    <path
       inkscape:connector-curvature="0"
       id="path1193"
       d="M 181.50236,77.728739 H 137.60987 93.717386"
       style="display:inline;fill:none;fill-rule:evenodd;stroke:#ab00ff;stroke-width:0.26499999;stroke-linecap:butt;stroke-linejoin:miter;stroke-miterlimit:4;stroke-dasharray:none;stroke-dashoffset:0;stroke-opacity:1"
       sodipodi:nodetypes="ccc" />
    <path
       sodipodi:nodetypes="caccaccscc"
       inkscape:connector-curvature="0"
       id="path1233"
       d="m 181.50236,59.855732 c -2.83482,0 -2.87572,6.993673 -5.92064,6.957125 -2.93413,-0.03522 -1.76291,-6.744511 -5.54267,-6.839005 0,0 -8.25051,0.307105 -8.25051,0.307105 -1.63186,-0.0989 -2.85586,2.641635 -4.29412,5.248428 -1.3101,2.374511 -2.79797,4.638052 -4.93381,4.543519 -1.97397,-0.08737 -3.09098,-2.309897 -4.06639,-4.602476 -1.0511,-2.470496 -1.93776,-5.022339 -3.55515,-5.071351 0,0 -9.28995,-0.07087 -9.28995,-0.07087 -4.00732,0 -6.64546,1.182688 -8.6043,2.882344 -2.43397,2.111909 -3.81914,5.021983 -5.47901,7.453095 -1.72937,2.532914 -3.75692,4.545913 -7.57945,4.594623 -4.40676,0.05616 -6.22111,-1.800268 -7.37415,-4.242058 -1.23294,-2.611006 -1.70972,-5.891322 -3.79135,-8.218243 -1.55358,-1.736635 -4.001048,-2.942231 -8.323893,-2.942231 0,0 -0.779581,0 -0.779581,0"
       style="display:inline;fill:none;fill-rule:evenodd;stroke:#000000;stroke-width:0.26458332px;stroke-linecap:butt;stroke-linejoin:miter;stroke-opacity:1" />
    <path
       style="display:inline;fill:none;fill-rule:evenodd;stroke:#ff0303;stroke-width:0.26458332px;stroke-linecap:butt;stroke-linejoin:miter;stroke-opacity:1"
       d="m 181.50236,57.739064 c -2.83482,0 -2.87572,6.993673 -5.92064,6.957125 -2.93413,-0.03522 -1.76291,-6.744511 -5.54267,-6.839005 0,0 -8.25051,0.307105 -8.25051,0.307105 -1.63186,-0.0989 -2.85586,2.641635 -4.29412,5.248428 -1.3101,2.374511 -2.79797,4.638052 -4.93381,4.543519 -1.97397,-0.08737 -3.09098,-2.309897 -4.06639,-4.602476 -1.0511,-2.470496 -1.93776,-5.022339 -3.55515,-5.071351 0,0 -9.28995,-0.07087 -9.28995,-0.07087 -4.00732,0 -6.64546,1.182688 -8.6043,2.882344 -2.43397,2.111909 -3.81914,5.021983 -5.47901,7.453095 -1.72937,2.532914 -3.75692,4.545913 -7.57945,4.594623 -4.40676,0.05616 -6.22111,-1.800268 -7.37415,-4.242058 -1.23294,-2.611006 -1.70972,-5.891322 -3.79135,-8.218243 -1.55358,-1.736635 -4.001048,-2.942231 -8.323893,-2.942231 0,0 -0.779581,0 -0.779581,0"
       id="path1361"
       inkscape:connector-curvature="0"
       sodipodi:nodetypes="caccaccscc" />
    <text
       id="text1138"
       y="78.46579"
       x="189.68555"
       style="font-style:normal;font-variant:normal;font-weight:normal;font-stretch:normal;font-size:3.52777767px;line-height:125%;font-family:sans-serif;-inkscape-font-specification:'sans-serif, Normal';font-variant-ligatures:normal;font-variant-caps:normal;font-variant-numeric:normal;font-feature-settings:normal;text-align:center;letter-spacing:0px;word-spacing:0px;writing-mode:lr-tb;text-anchor:middle;display:inline;fill:#ab00ff;fill-opacity:1;stroke:none;stroke-width:0.26499999;stroke-linecap:butt;stroke-linejoin:miter;stroke-miterlimit:4;stroke-dasharray:none;stroke-opacity:1"
       xml:space="preserve"><tspan
         style="font-style:normal;font-variant:normal;font-weight:normal;font-stretch:normal;font-size:3.52777767px;font-family:sans-serif;-inkscape-font-specification:'sans-serif, Normal';font-variant-ligatures:normal;font-variant-caps:normal;font-variant-numeric:normal;font-feature-settings:normal;text-align:center;writing-mode:lr-tb;text-anchor:middle;fill:#ab00ff;fill-opacity:1;stroke-width:0.26499999;stroke-miterlimit:4;stroke-dasharray:none"
         y="78.46579"
         x="189.68555"
         id="tspan1136"
         sodipodi:role="line">Fst</tspan></text>
  </g>
  <g
     inkscape:groupmode="layer"
     id="layer3"
     inkscape:label="time1"
     style="display:inline"
     transform="translate(-89.612151,-44.90677)">
    <path
       style="display:inline;fill:none;fill-rule:evenodd;stroke:#000000;stroke-width:0.26458332px;stroke-linecap:butt;stroke-linejoin:miter;stroke-opacity:1"
       d="m 181.50236,59.855732 c -0.65818,0 -1.16575,0.377004 -1.59528,0.955492 -0.34558,0.465427 -0.64064,1.061276 -0.92298,1.696136 -0.25877,0.581889 -0.50686,1.19655 -0.77335,1.773597 -0.29091,0.629896 -0.60374,1.214972 -0.97636,1.663679 -0.44444,0.535182 -0.97392,0.876368 -1.65267,0.868221 -0.69772,-0.0084 -1.16329,-0.394139 -1.5185,-0.978607 -0.2927,-0.481619 -0.51047,-1.098164 -0.72142,-1.749653 -0.1926,-0.594779 -0.37952,-1.218685 -0.61261,-1.795639 -0.25163,-0.622832 -0.55707,-1.19095 -0.98154,-1.608645 -0.42697,-0.42015 -0.97438,-0.688105 -1.7086,-0.706461 l -1.64978,0.06141 -1.65077,0.06145 -1.6502,0.06142 -1.65062,0.06144 -1.64914,0.06139 c -0.5494,-0.0333 -1.05257,0.255247 -1.53325,0.752174 -0.35885,0.370979 -0.70516,0.858096 -1.04882,1.414145 -0.29101,0.470863 -0.58012,0.991154 -0.87332,1.53221 -0.27435,0.506281 -0.55229,7.909909 -0.83873,8.429066 -0.28722,0.520584 -0.58299,-5.843333 -0.89226,-5.357097 -0.32859,0.516608 -0.67241,1.000465 -1.03742,1.423171 -0.4112,0.476205 -0.84928,0.8748 -1.32274,1.155183 -0.51497,0.304962 -1.07179,0.470076 -1.68139,0.443095 -0.56289,-0.02491 -1.0561,-0.223447 -1.49621,-0.547713 -0.40619,-0.299276 -0.76716,-0.705653 -1.09594,-1.181487 -0.29093,-0.421068 -0.55667,-0.896524 -0.80623,-1.400283 -0.23444,-0.473229 -0.45461,-0.971435 -0.66801,-1.472993 -0.21325,-0.501216 -0.41973,-1.005781 -0.62691,-1.492114 -0.2214,-0.519687 -0.4436,-1.018555 -0.67573,-1.470275 -0.27307,-0.531379 -0.55987,-0.997513 -0.87527,-1.355541 -0.40229,-0.456686 -0.8511,-0.737477 -1.37724,-0.753421 l -1.85763,-0.01417 -1.85874,-0.01418 -1.8581,-0.01417 -1.85857,-0.01418 -1.85691,-0.01417 c -0.65354,0 -1.27066,0.03146 -1.85436,0.09148 -0.65012,0.06685 -1.25878,0.169151 -1.8301,0.302896 -0.63401,0.148419 -1.22205,0.335566 -1.76977,0.555991 -0.59774,0.240556 -1.14746,0.520745 -1.65651,0.83348 -0.54083,0.332261 -1.03575,0.70126 -1.49356,1.098497 -0.4736,0.410935 -0.9075,0.85209 -1.31143,1.314057 -0.40943,0.468247 -0.78807,0.957874 -1.1461,1.459085 -0.36172,0.506398 -0.70239,1.02462 -1.03248,1.544561 -0.33473,0.527249 -0.65858,1.056266 -0.98247,1.576513 -0.33156,0.532585 -0.66317,1.05598 -1.00653,1.558879 -0.35508,0.520064 -0.72273,1.018209 -1.1159,1.481934 -0.40533,0.478058 -0.83779,0.919535 -1.31156,1.310733 -0.4728,0.390382 -0.98674,0.730695 -1.55594,1.007327 -0.53224,0.258667 -1.11279,0.461654 -1.75318,0.597835 -0.56506,0.120159 -1.17671,0.188305 -1.84287,0.196794 -0.66166,0.0084 -1.26488,-0.02625 -1.81619,-0.09956 -0.65975,-0.08773 -1.24517,-0.230775 -1.76746,-0.421435 -0.61446,-0.224309 -1.14154,-0.514524 -1.59947,-0.858107 -0.4979,-0.373563 -0.91406,-0.810214 -1.27193,-1.293838 -0.35648,-0.481739 -0.64037,5.742529 -1.10809,5.725825 -0.25405,-0.53801 -0.28701,-8.399378 -0.49751,-8.980027 -0.20455,-0.564238 -0.39828,-1.141905 -0.60016,-1.719973 -0.19964,-0.571633 -0.40723,-1.143659 -0.64111,-1.703481 -0.2344,-0.561051 -0.4952,-1.109846 -0.80085,-1.633704 -0.30387,-0.520798 -0.65207,-1.01695 -1.06273,-1.475998 -0.39219,-0.438399 -0.84134,-0.842956 -1.36325,-1.20282 -0.4709,-0.324697 -1.00103,-0.613009 -1.601992,-0.856965 C 99.33196,60.525607 98.754524,60.34671 98.115637,60.206766 97.563129,60.085742 96.964663,59.99385 96.315276,59.9345 95.748992,59.88275 95.143986,59.85574 94.496967,59.85574 h -0.779581"
       id="path1328"
       inkscape:connector-curvature="0"
       sodipodi:nodetypes="caccaccsccccccccssssssssssscsssccccccsssscsssscsssscsssscsssscsssssc" />
    <path
       sodipodi:nodetypes="caccaccscc"
       inkscape:connector-curvature="0"
       id="path1367"
       d="m 181.50236,53.505731 c -0.65818,0 -1.16575,0.377005 -1.59528,0.955492 -0.34558,0.465427 -0.64064,1.061276 -0.92298,1.696137 -0.25877,0.581888 -0.50686,1.196549 -0.77335,1.773596 -0.29091,0.629896 -0.60374,1.214972 -0.97636,1.66368 -0.44444,0.535182 -0.97392,0.876367 -1.65267,0.86822 -0.69772,-0.0084 -1.16329,-0.394138 -1.5185,-0.978607 -0.2927,-0.481619 -0.51047,-1.098163 -0.72142,-1.749653 -0.1926,-0.594779 -0.37952,-1.218684 -0.61261,-1.795639 -0.25163,-0.622832 -0.55707,-1.190949 -0.98154,-1.608645 -0.42697,-0.42015 -0.97438,-0.688105 -1.7086,-0.706461 0,0 -0.6801,0.02532 -1.64978,0.06141 -0.4926,0.01834 -1.05992,0.03945 -1.65077,0.06144 -0.54344,0.02023 -1.10678,0.0412 -1.6502,0.06142 -0.59083,0.02199 -1.15809,0.04311 -1.65062,0.06144 -0.96933,0.03608 -1.64914,0.06139 -1.64914,0.06139 -0.5494,-0.0333 -1.05257,0.255247 -1.53325,0.752174 -0.35885,0.370979 -0.70516,0.858096 -1.04882,1.414145 -0.29101,0.470863 -0.58012,0.991155 -0.87332,1.53221 -0.27435,0.506281 -0.55229,1.030742 -0.83873,1.549899 -0.28722,0.520584 -0.58299,1.035834 -0.89226,1.522071 -0.32859,0.516607 -0.67241,1.000464 -1.03742,1.423171 -0.4112,0.476204 -0.84928,0.8748 -1.32274,1.155182 -0.51497,0.304963 -1.07179,0.470077 -1.68139,0.443095 -0.56289,-0.02491 -1.0561,-0.223446 -1.49621,-0.547713 -0.40619,-0.299276 -0.76716,-0.705653 -1.09594,-1.181487 -0.29093,-0.421067 -0.55667,-0.896523 -0.80623,-1.400283 -0.23444,-0.473229 -0.45461,-0.971434 -0.66801,-1.472993 -0.21325,-0.501216 -0.41973,-1.005781 -0.62691,-1.492114 -0.2214,-0.519686 -0.4436,-1.018555 -0.67573,-1.470275 -0.27307,-0.531378 -0.55987,-0.997513 -0.87527,-1.355541 -0.40229,-0.456685 -0.8511,-0.737477 -1.37724,-0.753421 0,0 -0.76579,-0.0058 -1.85763,-0.01417 -0.55465,-0.0042 -1.19345,-0.0091 -1.85874,-0.01418 -0.6119,-0.0047 -1.24622,-0.0095 -1.8581,-0.01417 -0.66526,-0.0051 -1.304,-0.0099 -1.85857,-0.01418 -1.09146,-0.0083 -1.85691,-0.01417 -1.85691,-0.01417 -0.65354,0 -1.27066,0.03146 -1.85436,0.09148 -0.65012,0.06685 -1.25878,0.16915 -1.8301,0.302896 -0.63401,0.148418 -1.22205,0.335566 -1.76977,0.555991 -0.59774,0.240556 -1.14746,0.520744 -1.65651,0.83348 -0.54083,0.332261 -1.03575,0.701259 -1.49356,1.098496 -0.4736,0.410936 -0.9075,0.852091 -1.31143,1.314057 -0.40943,0.468247 -0.78807,0.957875 -1.1461,1.459085 -0.36172,0.506398 -0.70239,1.02462 -1.03248,1.544561 -0.33473,0.527249 -0.65858,1.056266 -0.98247,1.576513 -0.33156,0.532585 -0.66317,1.05598 -1.00653,1.558879 -0.35508,0.520064 -0.72273,1.018209 -1.1159,1.481934 -0.40533,0.478058 -0.83779,0.919535 -1.31156,1.310733 -0.4728,0.390382 -0.98674,0.730696 -1.55594,1.007327 -0.53224,0.258667 -1.11279,0.461655 -1.75318,0.597835 -0.56506,0.120159 -1.17671,0.188305 -1.84287,0.196794 -0.66166,0.0084 -1.26488,-0.02625 -1.81619,-0.09956 -0.65975,-0.08773 -1.24517,-0.230776 -1.76746,-0.421436 -0.61446,-0.224309 -1.14154,-0.514524 -1.59947,-0.858106 -0.4979,-0.373563 -0.91406,-0.810214 -1.27193,-1.293839 -0.35648,-0.481739 -0.65512,-1.010086 -0.9191,-1.569115 -0.25405,-0.53801 -0.476,-1.104438 -0.6865,-1.685087 -0.20455,-0.564238 -0.39828,-1.141904 -0.60016,-1.719973 -0.19964,-0.571633 -0.40723,-1.143658 -0.64111,-1.703481 -0.2344,-0.561051 -0.4952,-1.109846 -0.80085,-1.633704 -0.30387,-0.520798 -0.65207,-1.01695 -1.06273,-1.475998 -0.39219,-0.438398 -0.84134,-0.842955 -1.36325,-1.20282 -0.4709,-0.324696 -1.00103,-0.613008 -1.601992,-0.856964 -0.523658,-0.212576 -1.101094,-0.391473 -1.739981,-0.531418 -0.552508,-0.121024 -1.150974,-0.212916 -1.800361,-0.272266 -0.566284,-0.05175 -1.17129,-0.07876 -1.818309,-0.07876 0,0 -0.779581,0 -0.779581,0"
       style="display:inline;fill:none;fill-rule:evenodd;stroke:#ff0303;stroke-width:0.26458332px;stroke-linecap:butt;stroke-linejoin:miter;stroke-opacity:1" />
    <path
       sodipodi:type="star"
       style="opacity:1;fill:#ff0000;fill-opacity:1;stroke:#ff0303;stroke-width:0.26499999;stroke-linecap:round;stroke-miterlimit:4;stroke-dasharray:none;stroke-dashoffset:0;stroke-opacity:1"
       id="path1375"
       sodipodi:sides="5"
       sodipodi:cx="106.11682"
       sodipodi:cy="81.648064"
       sodipodi:r1="1.526598"
       sodipodi:r2="0.56770366"
       sodipodi:arg1="1.1902899"
       sodipodi:arg2="1.8186085"
       inkscape:flatsided="false"
       inkscape:rounded="0"
       inkscape:randomized="0"
       d="m 106.68379,83.065474 -0.70622,-0.867049 -1.03358,0.426858 0.60638,-0.939581 -0.72537,-0.851094 1.08098,0.286356 0.58529,-0.952863 0.0617,1.116559 1.08709,0.262193 -1.04284,0.403715 z"
       inkscape:transform-center-x="-0.11570988"
       inkscape:transform-center-y="-0.031276972" />
    <path
       sodipodi:type="star"
       style="opacity:1;fill:#ff0000;fill-opacity:1;stroke:#ff0303;stroke-width:0.26499999;stroke-linecap:round;stroke-miterlimit:4;stroke-dasharray:none;stroke-dashoffset:0;stroke-opacity:1"
       id="path1377"
       sodipodi:sides="5"
       sodipodi:cx="158.55019"
       sodipodi:cy="81.991943"
       sodipodi:r1="2.080858"
       sodipodi:r2="0.77381909"
       sodipodi:arg1="2.6866249"
       sodipodi:arg2="3.3149434"
       inkscape:flatsided="false"
       inkscape:rounded="0"
       inkscape:randomized="0"
       d="m 156.681,82.906342 1.10696,-1.04787 -0.68503,-1.361663 1.33866,0.728974 1.08333,-1.072282 -0.27963,1.4984 1.35457,0.698957 -1.51148,0.197088 -0.24616,1.504261 -0.65451,-1.376593 z"
       inkscape:transform-center-x="-0.090241853"
       inkscape:transform-center-y="0.11090963" />
    <path
       sodipodi:nodetypes="ccscscccccccsccssccccccccccccccccccsccccccccc"
       style="display:inline;fill:none;fill-rule:evenodd;stroke:#ab00ff;stroke-width:0.26499999;stroke-linecap:butt;stroke-linejoin:miter;stroke-miterlimit:4;stroke-dasharray:none;stroke-dashoffset:0;stroke-opacity:1"
       d="m 181.50236,75.082904 h -1.99461 c 0,0 -1.19333,-1.307249 -1.99588,-1.5875 -0.62783,-0.21924 -1.99503,-0.395532 -1.99503,-0.395532 0,0 -1.36743,0.176239 -1.99536,0.395532 -0.80248,0.280254 -1.99562,1.5875 -1.99562,1.5875 h -1.99494 -1.99527 -1.99482 -1.9949 -1.99542 -1.9944 c 0,0 -1.34262,-6.798186 -1.89451,-7.172711 -0.27881,-0.189202 -2.09476,3.997711 -2.09476,3.997711 h -1.99496 -1.99442 c -0.66481,0 -1.3994,0.232682 -1.99444,0.529167 -0.98879,0.492679 -1.9959,2.645833 -1.9959,2.645833 h -1.99461 -1.99573 -1.99552 -1.99595 -1.99544 -1.99461 -1.99588 -1.99503 -1.99536 -1.99562 -1.99494 -1.99527 -1.99482 -1.9949 l -0.86149,-1.181176 -1.9944,-2.267857 c -1.22843,-0.590588 -2.75069,-0.614211 -2.75069,-0.614211 0,0 -0.86404,-0.180272 -2.37251,0.755952 -1.0939,0.678927 -1.99496,3.307292 -1.99496,3.307292 h -1.99442 c -0.57032,-10.140665 -1.32962,-10.426995 -1.99443,0 h -1.99591 -1.9946 -1.995731 -1.995522 -1.995955 -1.995436"
       id="path1449"
       inkscape:connector-curvature="0" />
    <text
       xml:space="preserve"
       style="font-style:normal;font-variant:normal;font-weight:normal;font-stretch:normal;font-size:3.52777767px;line-height:125%;font-family:sans-serif;-inkscape-font-specification:'sans-serif, Normal';font-variant-ligatures:normal;font-variant-caps:normal;font-variant-numeric:normal;font-feature-settings:normal;text-align:center;letter-spacing:0px;word-spacing:0px;writing-mode:lr-tb;text-anchor:middle;display:inline;fill:#ab00ff;fill-opacity:1;stroke:none;stroke-width:0.26499999;stroke-linecap:butt;stroke-linejoin:miter;stroke-miterlimit:4;stroke-dasharray:none;stroke-opacity:1"
       x="189.68555"
       y="75.819954"
       id="text1453"><tspan
         sodipodi:role="line"
         id="tspan1451"
         x="189.68555"
         y="75.819954"
         style="font-style:normal;font-variant:normal;font-weight:normal;font-stretch:normal;font-size:3.52777767px;font-family:sans-serif;-inkscape-font-specification:'sans-serif, Normal';font-variant-ligatures:normal;font-variant-caps:normal;font-variant-numeric:normal;font-feature-settings:normal;text-align:center;writing-mode:lr-tb;text-anchor:middle;fill:#ab00ff;fill-opacity:1;stroke-width:0.26499999;stroke-miterlimit:4;stroke-dasharray:none">Fst</tspan></text>
  </g>
  <g
     inkscape:groupmode="layer"
     id="layer4"
     inkscape:label="time2"
     transform="translate(-89.612151,-44.90677)">
    <path
       sodipodi:nodetypes="caccsccsccccccccssssssssssscsssccccccsssscsssscsssscsssscsssscsssssc"
       inkscape:connector-curvature="0"
       id="path1535"
       d="m 181.50236,59.855732 c -0.65818,0 -1.16575,0.377004 -1.59528,0.955492 -0.34558,0.465427 -0.64064,1.061276 -0.92298,1.696136 -0.25877,0.581889 -0.50686,1.19655 -0.77335,1.773597 -0.29091,0.629896 -0.86369,1.091412 -0.97636,1.663679 -0.69328,3.521297 -1.06526,1.97247 -1.65267,0.868221 -0.8363,3.663841 -1.37756,5.283939 -1.5185,-0.978607 -0.2927,-0.481619 -0.51047,-1.098164 -0.72142,-1.749653 -0.1926,-0.594779 -0.37952,-1.218685 -0.61261,-1.795639 -0.25163,-0.622832 -0.55707,-1.19095 -0.98154,-1.608645 -0.42697,-0.42015 -0.97438,-0.688105 -1.7086,-0.706461 l -1.64978,0.06141 -1.65077,0.06145 -1.6502,0.06142 -1.65062,0.06144 -1.64914,0.06139 c -0.5494,-0.0333 -1.05257,0.255247 -1.53325,0.752174 -0.35885,0.370979 -0.70516,0.858096 -1.04882,1.414145 -0.29101,0.470863 -0.58012,0.991154 -0.87332,1.53221 -0.27435,0.506281 -0.55229,5.304031 -0.83873,5.823188 -0.28722,0.520584 -0.51617,-1.166116 -0.82544,-0.67988 -0.32859,0.516608 -0.93968,3.138621 -1.30469,3.561327 -0.4112,0.476205 -0.9161,-2.131982 -1.38956,-1.851599 -0.51497,0.304962 -0.80452,2.474597 -1.41412,2.447616 -0.56289,-0.02491 -1.0561,-3.430681 -1.49621,-3.754947 -0.40619,-0.299276 -0.76716,-0.705653 -1.09594,-1.181487 -0.29093,-0.421068 -0.55667,-0.896524 -0.80623,-1.400283 -0.23444,-0.473229 -0.45461,-0.971435 -0.66801,-1.472993 -0.21325,-0.501216 -0.41973,-1.005781 -0.62691,-1.492114 -0.2214,-0.519687 -0.4436,-1.018555 -0.67573,-1.470275 -0.27307,-0.531379 -0.55987,-0.997513 -0.87527,-1.355541 -0.40229,-0.456686 -0.8511,-0.737477 -1.37724,-0.753421 l -1.85763,-0.01417 -1.85874,-0.01418 -1.8581,-0.01417 -1.85857,-0.01418 -1.85691,-0.01417 c -0.65354,0 -1.27066,0.03146 -1.85436,0.09148 -0.65012,0.06685 -1.25878,0.169151 -1.8301,0.302896 -0.63401,0.148419 -1.22205,0.335566 -1.76977,0.555991 -0.59774,0.240556 -1.14746,0.520745 -1.65651,0.83348 -0.54083,0.332261 -1.03575,0.70126 -1.49356,1.098497 -0.4736,0.410935 -0.9075,0.85209 -1.31143,1.314057 -0.40943,0.468247 -0.78807,0.957874 -1.1461,1.459085 -0.36172,0.506398 -0.70239,1.02462 -1.03248,1.544561 -0.33473,0.527249 -0.65858,-1.589567 -0.98247,-1.06932 -0.33156,0.532585 -0.66317,1.05598 -1.00653,1.558879 -0.35508,0.520064 -0.72273,1.018209 -1.1159,1.481934 -0.40533,0.478058 -0.83779,0.919535 -1.31156,1.310733 -0.4728,0.390382 -1.41593,0.390147 -1.55594,1.007327 -0.46359,2.043587 -0.84986,7.297802 -1.75318,0.597835 -0.0772,-0.572515 -1.17671,2.834138 -1.84287,2.842627 -0.51123,1.813597 -2.14987,-0.467039 -2.19417,-0.0051 -0.593,6.184196 -0.86719,-0.325269 -1.38948,-0.515929 -0.61446,-0.224307 -1.14154,-3.160357 -1.59947,-3.50394 -0.4979,-0.373563 -0.91406,-0.810214 -1.27193,-1.293838 -0.35648,-0.481739 -0.64037,4.155029 -1.10809,4.138325 -0.25405,-0.53801 -0.28701,-6.811878 -0.49751,-7.392527 -0.20455,-0.564238 -0.39828,1.503928 -0.60016,0.92586 -0.19964,-0.571633 -0.40723,-1.143659 -0.64111,-1.703481 -0.2344,-0.561051 -0.4952,-1.109846 -0.80085,-1.633704 -0.30387,-0.520798 -0.65207,-1.01695 -1.06273,-1.475998 -0.39219,-0.438399 -0.84134,-0.842956 -1.36325,-1.20282 -0.4709,-0.324697 -1.00103,-0.613009 -1.601992,-0.856965 C 99.33196,60.525607 98.754524,60.34671 98.115637,60.206766 97.563129,60.085742 96.964663,59.99385 96.315276,59.9345 95.748992,59.88275 95.143986,59.85574 94.496967,59.85574 h -0.779581"
       style="display:inline;fill:none;fill-rule:evenodd;stroke:#000000;stroke-width:0.26458332px;stroke-linecap:butt;stroke-linejoin:miter;stroke-opacity:1" />
    <path
       style="display:inline;fill:none;fill-rule:evenodd;stroke:#ff0303;stroke-width:0.26458332px;stroke-linecap:butt;stroke-linejoin:miter;stroke-opacity:1"
       d="m 181.50236,45.039062 c -0.65818,0 -1.16575,0.377005 -1.59528,0.955492 -0.34558,0.465427 -0.64064,1.061276 -0.92298,1.696137 -0.25877,0.581888 -0.50686,1.196549 -0.77335,1.773596 -0.29091,0.629896 -0.60374,1.214972 -0.97636,1.66368 -0.44444,0.535182 -0.97392,0.876367 -1.65267,0.86822 -0.69772,-0.0084 -1.16329,-0.394138 -1.5185,-0.978607 -0.2927,-0.481619 -0.51047,-1.098163 -0.72142,-1.749653 -0.1926,-0.594779 -0.37952,-1.218684 -0.61261,-1.795639 -0.25163,-0.622832 -0.55707,-1.190949 -0.98154,-1.608645 -0.42697,-0.42015 -0.97438,-0.688105 -1.7086,-0.706461 0,0 -0.6801,0.02532 -1.64978,0.06141 -0.4926,0.01834 -1.05992,0.03945 -1.65077,0.06144 -0.54344,0.02023 -1.10678,0.0412 -1.6502,0.06142 -0.59083,0.02199 -1.15809,0.04311 -1.65062,0.06144 -0.96933,0.03608 -1.64914,0.06139 -1.64914,0.06139 -0.5494,-0.0333 -1.05257,0.255247 -1.53325,0.752174 -0.35885,0.370979 -0.70516,0.858096 -1.04882,1.414145 -0.29101,0.470863 -0.58012,0.991155 -0.87332,1.53221 -0.27435,0.506281 -0.55229,1.030742 -0.83873,1.549899 -0.28722,0.520584 -0.58299,1.035834 -0.89226,1.522071 -0.32859,0.516607 -0.67241,1.000464 -1.03742,1.423171 -0.4112,0.476204 -0.84928,0.8748 -1.32274,1.155182 -0.51497,0.304963 -1.07179,0.470077 -1.68139,0.443095 -0.56289,-0.02491 -1.0561,-0.223446 -1.49621,-0.547713 -0.40619,-0.299276 -0.76716,-0.705653 -1.09594,-1.181487 -0.29093,-0.421067 -0.55667,-0.896523 -0.80623,-1.400283 -0.23444,-0.473229 -0.45461,-0.971434 -0.66801,-1.472993 -0.21325,-0.501216 -0.41973,-1.005781 -0.62691,-1.492114 -0.2214,-0.519686 -0.4436,-1.018555 -0.67573,-1.470275 -0.27307,-0.531378 -0.55987,-0.997513 -0.87527,-1.355541 -0.40229,-0.456685 -0.8511,-0.737477 -1.37724,-0.753421 0,0 -0.76579,-0.0058 -1.85763,-0.01417 -0.55465,-0.0042 -1.19345,-0.0091 -1.85874,-0.01418 -0.6119,-0.0047 -1.24622,-0.0095 -1.8581,-0.01417 -0.66526,-0.0051 -1.304,-0.0099 -1.85857,-0.01418 -1.09146,-0.0083 -1.85691,-0.01417 -1.85691,-0.01417 -0.65354,0 -1.27066,0.03146 -1.85436,0.09148 -0.65012,0.06685 -1.25878,0.16915 -1.8301,0.302896 -0.63401,0.148418 -1.22205,0.335566 -1.76977,0.555991 -0.59774,0.240556 -1.14746,0.520744 -1.65651,0.83348 -0.54083,0.332261 -1.03575,0.701259 -1.49356,1.098496 -0.4736,0.410936 -0.9075,0.852091 -1.31143,1.314057 -0.40943,0.468247 -0.78807,0.957875 -1.1461,1.459085 -0.36172,0.506398 -0.70239,1.02462 -1.03248,1.544561 -0.33473,0.527249 -0.65858,1.056266 -0.98247,1.576513 -0.33156,0.532585 -0.66317,1.05598 -1.00653,1.558879 -0.35508,0.520064 -0.72273,1.018209 -1.1159,1.481934 -0.40533,0.478058 -0.83779,0.919535 -1.31156,1.310733 -0.4728,0.390382 -0.98674,0.730696 -1.55594,1.007327 -0.53224,0.258667 -1.11279,0.461655 -1.75318,0.597835 -0.56506,0.120159 -1.17671,0.188305 -1.84287,0.196794 -0.66166,0.0084 -1.26488,-0.02625 -1.81619,-0.09956 -0.65975,-0.08773 -1.24517,-0.230776 -1.76746,-0.421436 -0.61446,-0.224309 -1.14154,-0.514524 -1.59947,-0.858106 -0.4979,-0.373563 -0.91406,-0.810214 -1.27193,-1.293839 -0.35648,-0.481739 -0.65512,-1.010086 -0.9191,-1.569115 -0.25405,-0.53801 -0.476,-1.104438 -0.6865,-1.685087 -0.20455,-0.564238 -0.39828,-1.141904 -0.60016,-1.719973 -0.19964,-0.571633 -0.40723,-1.143658 -0.64111,-1.703481 -0.2344,-0.561051 -0.4952,-1.109846 -0.80085,-1.633704 -0.30387,-0.520798 -0.65207,-1.01695 -1.06273,-1.475998 -0.39219,-0.438398 -0.84134,-0.842955 -1.36325,-1.20282 -0.4709,-0.324696 -1.00103,-0.613008 -1.601992,-0.856964 -0.523658,-0.212576 -1.101094,-0.391473 -1.739981,-0.531418 -0.552508,-0.121024 -1.150974,-0.212916 -1.800361,-0.272266 -0.566284,-0.05175 -1.17129,-0.07876 -1.818309,-0.07876 0,0 -0.779581,0 -0.779581,0"
       id="path1537"
       inkscape:connector-curvature="0"
       sodipodi:nodetypes="caccaccscc" />
    <path
       inkscape:connector-curvature="0"
       id="path1539"
       d="m 181.50236,65.557907 h -1.99461 c 0,0 -1.87946,-0.745435 -1.99588,-1.5875 -0.36955,-2.672945 -0.96004,-1.477852 -1.72776,-1.531427 -0.90846,-0.0634 -1.32859,-10.245444 -2.26263,1.531427 -0.0672,0.847346 -1.99562,1.5875 -1.99562,1.5875 h -1.99494 -1.99527 -1.99482 -1.9949 -1.99542 -1.9944 c -2.25358,-0.730115 -1.46098,-8.050619 -3.43409,-5.230259 -0.8039,1.149094 -0.77541,-1.264354 -1.15654,-2.154236 -0.58191,-1.358687 -1.3936,4.209495 -1.3936,4.209495 L 152.112,59.910664 c -0.87257,-1.477652 -1.93394,2.704925 -2.52898,3.00141 -0.98879,0.492676 -1.9959,2.645833 -1.9959,2.645833 h -1.99461 -1.99573 -1.99552 -1.99595 -1.99544 -1.99461 -1.99588 -1.99503 -1.99536 -1.99562 -1.99494 l -1.99527,-1.133929 -1.99482,1.133929 h -1.9949 l -0.86149,-1.181176 -1.72713,-4.339196 c 0.0973,-6.257781 -3.07761,-1.833152 -2.92347,-0.716235 0.52312,3.7904 -2.59043,0.406825 -2.73427,-0.612006 -1.36997,-9.703606 -1.70567,3.410732 -1.72769,4.20278 h -1.99442 c -0.57032,-10.140665 -1.19599,-3.103945 -1.99443,2.645833 h -1.99591 -1.9946 -1.995731 -1.995522 -1.995955 -1.995436"
       style="display:inline;fill:none;fill-rule:evenodd;stroke:#ab00ff;stroke-width:0.26499999;stroke-linecap:butt;stroke-linejoin:miter;stroke-miterlimit:4;stroke-dasharray:none;stroke-dashoffset:0;stroke-opacity:1"
       sodipodi:nodetypes="ccssscccccccsscsscccccccccccccccccssccccccccc" />
    <text
       id="text1543"
       y="66.824112"
       x="189.68555"
       style="font-style:normal;font-variant:normal;font-weight:normal;font-stretch:normal;font-size:3.52777767px;line-height:125%;font-family:sans-serif;-inkscape-font-specification:'sans-serif, Normal';font-variant-ligatures:normal;font-variant-caps:normal;font-variant-numeric:normal;font-feature-settings:normal;text-align:center;letter-spacing:0px;word-spacing:0px;writing-mode:lr-tb;text-anchor:middle;display:inline;fill:#ab00ff;fill-opacity:1;stroke:none;stroke-width:0.26499999;stroke-linecap:butt;stroke-linejoin:miter;stroke-miterlimit:4;stroke-dasharray:none;stroke-opacity:1"
       xml:space="preserve"><tspan
         style="font-style:normal;font-variant:normal;font-weight:normal;font-stretch:normal;font-size:3.52777767px;font-family:sans-serif;-inkscape-font-specification:'sans-serif, Normal';font-variant-ligatures:normal;font-variant-caps:normal;font-variant-numeric:normal;font-feature-settings:normal;text-align:center;writing-mode:lr-tb;text-anchor:middle;fill:#ab00ff;fill-opacity:1;stroke-width:0.26499999;stroke-miterlimit:4;stroke-dasharray:none"
         y="66.824112"
         x="189.68555"
         id="tspan1541"
         sodipodi:role="line">Fst</tspan></text>
    <path
       inkscape:transform-center-y="-0.031276972"
       inkscape:transform-center-x="-0.11570988"
       d="m 106.68379,83.065474 -0.70622,-0.867049 -1.03358,0.426858 0.60638,-0.939581 -0.72537,-0.851094 1.08098,0.286356 0.58529,-0.952863 0.0617,1.116559 1.08709,0.262193 -1.04284,0.403715 z"
       inkscape:randomized="0"
       inkscape:rounded="0"
       inkscape:flatsided="false"
       sodipodi:arg2="1.8186085"
       sodipodi:arg1="1.1902899"
       sodipodi:r2="0.56770366"
       sodipodi:r1="1.526598"
       sodipodi:cy="81.648064"
       sodipodi:cx="106.11682"
       sodipodi:sides="5"
       id="path1550"
       style="display:inline;opacity:1;fill:#ff0000;fill-opacity:1;stroke:#ff0303;stroke-width:0.26499999;stroke-linecap:round;stroke-miterlimit:4;stroke-dasharray:none;stroke-dashoffset:0;stroke-opacity:1"
       sodipodi:type="star" />
    <path
       inkscape:transform-center-y="0.11090963"
       inkscape:transform-center-x="-0.090241853"
       d="m 156.681,82.906342 1.10696,-1.04787 -0.68503,-1.361663 1.33866,0.728974 1.08333,-1.072282 -0.27963,1.4984 1.35457,0.698957 -1.51148,0.197088 -0.24616,1.504261 -0.65451,-1.376593 z"
       inkscape:randomized="0"
       inkscape:rounded="0"
       inkscape:flatsided="false"
       sodipodi:arg2="3.3149434"
       sodipodi:arg1="2.6866249"
       sodipodi:r2="0.77381909"
       sodipodi:r1="2.080858"
       sodipodi:cy="81.991943"
       sodipodi:cx="158.55019"
       sodipodi:sides="5"
       id="path1552"
       style="display:inline;opacity:1;fill:#ff0000;fill-opacity:1;stroke:#ff0303;stroke-width:0.26499999;stroke-linecap:round;stroke-miterlimit:4;stroke-dasharray:none;stroke-dashoffset:0;stroke-opacity:1"
       sodipodi:type="star" />
    <path
       sodipodi:type="star"
       style="display:inline;opacity:1;fill:#ff0000;fill-opacity:1;stroke:#ff0303;stroke-width:0.26499999;stroke-linecap:round;stroke-miterlimit:4;stroke-dasharray:none;stroke-dashoffset:0;stroke-opacity:1"
       id="path1556"
       sodipodi:sides="5"
       sodipodi:cx="111.40849"
       sodipodi:cy="81.648064"
       sodipodi:r1="1.526598"
       sodipodi:r2="0.56770366"
       sodipodi:arg1="1.1902899"
       sodipodi:arg2="1.8186085"
       inkscape:flatsided="false"
       inkscape:rounded="0"
       inkscape:randomized="0"
       d="m 111.97546,83.065474 -0.70622,-0.867049 -1.03358,0.426858 0.60638,-0.939581 -0.72536,-0.851094 1.08097,0.286356 0.58529,-0.952863 0.0617,1.116559 1.08709,0.262193 -1.04284,0.403715 z"
       inkscape:transform-center-x="-0.11570988"
       inkscape:transform-center-y="-0.031276972" />
    <path
       inkscape:transform-center-y="-0.031276972"
       inkscape:transform-center-x="-0.11570988"
       d="m 117.26712,83.065474 -0.70621,-0.867049 -1.03359,0.426858 0.60638,-0.939581 -0.72536,-0.851094 1.08098,0.286356 0.58529,-0.952863 0.0617,1.116559 1.08709,0.262193 -1.04285,0.403715 z"
       inkscape:randomized="0"
       inkscape:rounded="0"
       inkscape:flatsided="false"
       sodipodi:arg2="1.8186085"
       sodipodi:arg1="1.1902899"
       sodipodi:r2="0.56770366"
       sodipodi:r1="1.526598"
       sodipodi:cy="81.648064"
       sodipodi:cx="116.70016"
       sodipodi:sides="5"
       id="path1558"
       style="display:inline;opacity:1;fill:#ff0000;fill-opacity:1;stroke:#ff0303;stroke-width:0.26499999;stroke-linecap:round;stroke-miterlimit:4;stroke-dasharray:none;stroke-dashoffset:0;stroke-opacity:1"
       sodipodi:type="star" />
    <path
       sodipodi:type="star"
       style="display:inline;opacity:1;fill:#ff0000;fill-opacity:1;stroke:#ff0303;stroke-width:0.26499999;stroke-linecap:round;stroke-miterlimit:4;stroke-dasharray:none;stroke-dashoffset:0;stroke-opacity:1"
       id="path1560"
       sodipodi:sides="5"
       sodipodi:cx="114.5835"
       sodipodi:cy="81.648064"
       sodipodi:r1="1.526598"
       sodipodi:r2="0.56770366"
       sodipodi:arg1="1.1902899"
       sodipodi:arg2="1.8186085"
       inkscape:flatsided="false"
       inkscape:rounded="0"
       inkscape:randomized="0"
       d="m 115.15047,83.065474 -0.70621,-0.867049 -1.03359,0.426858 0.60638,-0.939581 -0.72536,-0.851094 1.08097,0.286356 0.58529,-0.952863 0.0617,1.116559 1.08709,0.262193 -1.04284,0.403715 z"
       inkscape:transform-center-x="-0.11570988"
       inkscape:transform-center-y="-0.031276972" />
    <path
       sodipodi:type="star"
       style="display:inline;opacity:1;fill:#ff0000;fill-opacity:1;stroke:#ff0303;stroke-width:0.26499999;stroke-linecap:round;stroke-miterlimit:4;stroke-dasharray:none;stroke-dashoffset:0;stroke-opacity:1"
       id="path1562"
       sodipodi:sides="5"
       sodipodi:cx="153.25851"
       sodipodi:cy="81.991943"
       sodipodi:r1="2.080858"
       sodipodi:r2="0.77381909"
       sodipodi:arg1="2.6866249"
       sodipodi:arg2="3.3149434"
       inkscape:flatsided="false"
       inkscape:rounded="0"
       inkscape:randomized="0"
       d="m 151.38933,82.906342 1.10696,-1.04787 -0.68503,-1.361663 1.33865,0.728974 1.08334,-1.072282 -0.27963,1.4984 1.35457,0.698957 -1.51148,0.197088 -0.24616,1.504261 -0.65451,-1.376593 z"
       inkscape:transform-center-x="-0.090241853"
       inkscape:transform-center-y="0.11090963" />
    <path
       inkscape:transform-center-y="0.11090963"
       inkscape:transform-center-x="-0.090241853"
       d="m 154.56435,82.906342 1.10696,-1.04787 -0.68503,-1.361663 1.33865,0.728974 1.08333,-1.072282 -0.27962,1.4984 1.35456,0.698957 -1.51147,0.197088 -0.24616,1.504261 -0.65452,-1.376593 z"
       inkscape:randomized="0"
       inkscape:rounded="0"
       inkscape:flatsided="false"
       sodipodi:arg2="3.3149434"
       sodipodi:arg1="2.6866249"
       sodipodi:r2="0.77381909"
       sodipodi:r1="2.080858"
       sodipodi:cy="81.991943"
       sodipodi:cx="156.43353"
       sodipodi:sides="5"
       id="path1564"
       style="display:inline;opacity:1;fill:#ff0000;fill-opacity:1;stroke:#ff0303;stroke-width:0.26499999;stroke-linecap:round;stroke-miterlimit:4;stroke-dasharray:none;stroke-dashoffset:0;stroke-opacity:1"
       sodipodi:type="star" />
    <path
       sodipodi:type="star"
       style="display:inline;opacity:1;fill:#ff0000;fill-opacity:1;stroke:#ff0303;stroke-width:0.26499999;stroke-linecap:round;stroke-miterlimit:4;stroke-dasharray:none;stroke-dashoffset:0;stroke-opacity:1"
       id="path1566"
       sodipodi:sides="5"
       sodipodi:cx="177.6002"
       sodipodi:cy="81.991943"
       sodipodi:r1="2.080858"
       sodipodi:r2="0.77381909"
       sodipodi:arg1="2.6866249"
       sodipodi:arg2="3.3149434"
       inkscape:flatsided="false"
       inkscape:rounded="0"
       inkscape:randomized="0"
       d="m 175.73102,82.906342 1.10696,-1.04787 -0.68503,-1.361663 1.33865,0.728974 1.08334,-1.072282 -0.27963,1.4984 1.35457,0.698957 -1.51148,0.197088 -0.24616,1.504261 -0.65451,-1.376593 z"
       inkscape:transform-center-x="-0.090241853"
       inkscape:transform-center-y="0.11090963" />
    <path
       inkscape:transform-center-y="0.11090963"
       inkscape:transform-center-x="-0.090241853"
       d="m 173.61432,82.906342 1.10696,-1.04787 -0.68503,-1.361663 1.33865,0.728974 1.08334,-1.072282 -0.27963,1.4984 1.35457,0.698957 -1.51148,0.197088 -0.24616,1.504261 -0.65451,-1.376593 z"
       inkscape:randomized="0"
       inkscape:rounded="0"
       inkscape:flatsided="false"
       sodipodi:arg2="3.3149434"
       sodipodi:arg1="2.6866249"
       sodipodi:r2="0.77381909"
       sodipodi:r1="2.080858"
       sodipodi:cy="81.991943"
       sodipodi:cx="175.48351"
       sodipodi:sides="5"
       id="path1568"
       style="display:inline;opacity:1;fill:#ff0000;fill-opacity:1;stroke:#ff0303;stroke-width:0.26499999;stroke-linecap:round;stroke-miterlimit:4;stroke-dasharray:none;stroke-dashoffset:0;stroke-opacity:1"
       sodipodi:type="star" />
    <path
       sodipodi:type="star"
       style="display:inline;opacity:1;fill:#ff0000;fill-opacity:1;stroke:#ff0303;stroke-width:0.26499999;stroke-linecap:round;stroke-miterlimit:4;stroke-dasharray:none;stroke-dashoffset:0;stroke-opacity:1"
       id="path1570"
       sodipodi:sides="5"
       sodipodi:cx="173.36687"
       sodipodi:cy="81.991943"
       sodipodi:r1="2.080858"
       sodipodi:r2="0.77381909"
       sodipodi:arg1="2.6866249"
       sodipodi:arg2="3.3149434"
       inkscape:flatsided="false"
       inkscape:rounded="0"
       inkscape:randomized="0"
       d="m 171.49768,82.906342 1.10697,-1.04787 -0.68504,-1.361663 1.33866,0.728974 1.08333,-1.072282 -0.27963,1.4984 1.35457,0.698957 -1.51148,0.197088 -0.24616,1.504261 -0.65451,-1.376593 z"
       inkscape:transform-center-x="-0.090241853"
       inkscape:transform-center-y="0.11090963" />
  </g>
</svg>
